<svg width="74" height="78" viewBox="0 0 74 78" fill="none" xmlns="http://www.w3.org/2000/svg">
<path d="M63.2295 19.9673H62.6394V20.5579H63.2295V19.9673ZM54.0492 10.7789H53.459V11.3696H54.0492V10.7789ZM55.3411 10.7789V11.3696H55.9312V10.7789H55.3411ZM63.2295 18.6743V18.0836H62.6394V18.6743H63.2295ZM26.5083 27.3656H27.0984V27.1209L26.9256 26.9478L26.5083 27.3656ZM26.5387 25.7253L26.1214 26.143L27.03 27.0524L27.1271 25.7699L26.5387 25.7253ZM47.4615 25.7251L46.873 25.7698L46.9702 27.0523L47.8788 26.1429L47.4615 25.7251ZM47.4919 27.3654L47.0746 26.9478L46.9017 27.1208V27.3654H47.4919ZM47.4919 50.6345H46.9017V50.8791L47.0746 51.0522L47.4919 50.6345ZM47.4615 52.2748L47.8788 51.8572L46.9702 50.9476L46.873 52.2301L47.4615 52.2748ZM26.5387 52.2747L27.1271 52.23L27.03 50.9475L26.1214 51.857L26.5387 52.2747ZM26.5083 50.6343L26.9256 51.0521L27.0984 50.879V50.6343H26.5083ZM10.7705 19.9673V20.5579H11.3606V19.9673H10.7705ZM10.7705 18.6743H11.3606V18.0836H10.7705V18.6743ZM18.659 10.7789H18.0688V11.3696H18.659V10.7789ZM19.9509 10.7789V11.3696H20.541V10.7789H19.9509ZM10.7705 58.0328H11.3607V57.4421H10.7705V58.0328ZM19.9509 67.2211H20.541V66.6304H19.9509V67.2211ZM18.659 67.2211V66.6304H18.0688V67.2211H18.659ZM10.7705 59.3258V59.9164H11.3607V59.3258H10.7705ZM63.2295 58.0328V57.4421H62.6394V58.0328H63.2295ZM63.2295 59.3258H62.6394V59.9164H63.2295V59.3258ZM55.3411 67.2211H55.9312V66.6304H55.3411V67.2211ZM54.0492 67.2211V66.6304H53.459V67.2211H54.0492ZM68.0019 17.9275C66.5893 18.8723 64.9285 19.3766 63.2295 19.3766V20.5579C65.162 20.5579 67.051 19.9844 68.6577 18.9098L68.0019 17.9275ZM71.1658 14.0691C70.5157 15.6401 69.4146 16.9828 68.0019 17.9275L68.6577 18.9098C70.2645 17.8353 71.5167 16.308 72.2563 14.5211L71.1658 14.0691ZM71.6546 9.10164C71.986 10.7694 71.8159 12.4981 71.1658 14.0691L72.2563 14.5211C72.9958 12.7343 73.1892 10.7681 72.8122 8.87117L71.6546 9.10164ZM69.3037 4.69953C70.5051 5.90192 71.3232 7.43387 71.6546 9.10164L72.8122 8.87117C72.4352 6.97424 71.5047 5.2318 70.1383 3.86419L69.3037 4.69953ZM64.9054 2.34655C66.5717 2.67829 68.1024 3.49713 69.3037 4.69953L70.1383 3.86419C68.7719 2.49658 67.0309 1.56523 65.1356 1.1879L64.9054 2.34655ZM59.9422 2.8358C61.5119 2.18507 63.2391 2.01481 64.9054 2.34655L65.1356 1.1879C63.2404 0.810582 61.2759 1.00424 59.4905 1.74438L59.9422 2.8358ZM56.087 6.00237C57.0309 4.58851 58.3726 3.48654 59.9422 2.8358L59.4905 1.74438C57.7052 2.48453 56.1792 3.73792 55.1057 5.34605L56.087 6.00237ZM54.6394 10.7789C54.6394 9.0785 55.1432 7.41625 56.087 6.00237L55.1057 5.34605C54.0321 6.95419 53.459 8.84485 53.459 10.7789H54.6394ZM55.3411 10.1883H54.0492V11.3696H55.3411V10.1883ZM56.1798 6.06437C55.2482 7.45988 54.7509 9.10058 54.7509 10.7789H55.9312C55.9312 9.33422 56.3592 7.92195 57.1612 6.72069L56.1798 6.06437ZM59.9849 2.9389C58.4356 3.58119 57.1114 4.66885 56.1798 6.06437L57.1612 6.72069C57.9632 5.51945 59.103 4.5832 60.4365 4.03032L59.9849 2.9389ZM64.8836 2.456C63.239 2.12857 61.5341 2.29661 59.9849 2.9389L60.4365 4.03032C61.7702 3.47745 63.2377 3.3328 64.6534 3.61464L64.8836 2.456ZM69.2249 4.77844C68.0391 3.59164 66.5283 2.78343 64.8836 2.456L64.6534 3.61464C66.0692 3.8965 67.3695 4.5922 68.3903 5.61378L69.2249 4.77844ZM71.5453 9.12341C71.2181 7.47729 70.4106 5.96522 69.2249 4.77844L68.3903 5.61378C69.4109 6.63535 70.106 7.93691 70.3876 9.35388L71.5453 9.12341ZM71.0628 14.0264C71.7045 12.4757 71.8725 10.7695 71.5453 9.12341L70.3876 9.35388C70.6693 10.7708 70.5247 12.2396 69.9723 13.5743L71.0628 14.0264ZM67.94 17.8348C69.3343 16.9024 70.421 15.577 71.0628 14.0264L69.9723 13.5743C69.4199 14.9091 68.4845 16.0499 67.2843 16.8525L67.94 17.8348ZM63.2295 19.2649C64.9064 19.2649 66.5457 18.7672 67.94 17.8348L67.2843 16.8525C66.084 17.6552 64.673 18.0836 63.2295 18.0836V19.2649ZM63.8197 19.9673V18.6743H62.6394V19.9673H63.8197ZM25.6737 27.3656L26.091 27.7833L26.9256 26.9478L26.5083 26.5302L25.6737 27.3656ZM9.936 11.6143L25.6737 27.3656L26.5083 26.5302L10.7706 10.7789L9.936 11.6143ZM9.93602 9.94357C9.47506 10.4049 9.47506 11.1529 9.936 11.6143L10.7706 10.7789L9.93602 9.94357ZM11.6052 9.94357C11.1443 9.48223 10.397 9.48223 9.93602 9.94357L10.7706 10.7789L11.6052 9.94357ZM26.956 25.3077L11.6052 9.94357L10.7706 10.7789L26.1214 26.143L26.956 25.3077ZM37.0001 15.4387C31.1652 15.4387 26.3841 19.9517 25.9502 25.6806L27.1271 25.7699C27.5147 20.6522 31.7873 16.62 37.0001 16.62V15.4387ZM48.0499 25.6805C47.6161 19.9515 42.8349 15.4387 37.0001 15.4387V16.62C42.2129 16.62 46.4854 20.6522 46.873 25.7698L48.0499 25.6805ZM62.3949 9.94357L47.0442 25.3075L47.8788 26.1429L63.2295 10.7789L62.3949 9.94357ZM64.0641 9.94357C63.6031 9.48223 62.8558 9.48223 62.3949 9.94357L63.2295 10.7789L64.0641 9.94357ZM64.0641 11.6143C64.5251 11.1529 64.5251 10.4049 64.0641 9.94357L63.2295 10.7789L64.0641 11.6143ZM48.3264 27.3656L64.0641 11.6143L63.2295 10.7789L47.4918 26.5302L48.3264 27.3656ZM47.9092 27.7832L48.3264 27.3656L47.4918 26.5302L47.0746 26.9478L47.9092 27.7832ZM48.082 50.6345V27.3654H46.9017V50.6345H48.082ZM48.3264 50.6343L47.9092 50.2169L47.0746 51.0522L47.4918 51.4697L48.3264 50.6343ZM64.0641 66.3857L48.3264 50.6343L47.4918 51.4697L63.2295 67.2211L64.0641 66.3857ZM64.0641 68.0564C64.5251 67.5951 64.5251 66.8471 64.0641 66.3857L63.2295 67.2211L64.0641 68.0564ZM62.3949 68.0564C62.8558 68.5177 63.6031 68.5177 64.0641 68.0564L63.2295 67.2211L62.3949 68.0564ZM47.0442 52.6925L62.3949 68.0564L63.2295 67.2211L47.8788 51.8572L47.0442 52.6925ZM37.0001 62.5614C42.8349 62.5614 47.6162 58.0485 48.0501 52.3194L46.873 52.2301C46.4854 57.3478 42.213 61.38 37.0001 61.38V62.5614ZM25.9502 52.3193C26.384 58.0485 31.1652 62.5614 37.0001 62.5614V61.38C31.7872 61.38 27.5147 57.3478 27.1271 52.23L25.9502 52.3193ZM11.6052 68.0564L26.956 52.6924L26.1214 51.857L10.7706 67.2211L11.6052 68.0564ZM9.936 68.0564C10.397 68.5177 11.1443 68.5177 11.6052 68.0564L10.7706 67.2211L9.936 68.0564ZM9.93602 66.3857C9.47506 66.8471 9.47505 67.5951 9.936 68.0564L10.7706 67.2211L9.93602 66.3857ZM25.6737 50.6343L9.93602 66.3857L10.7706 67.2211L26.5083 51.4697L25.6737 50.6343ZM26.091 50.2167L25.6737 50.6343L26.5083 51.4697L26.9256 51.0521L26.091 50.2167ZM25.9181 27.3656V50.6343H27.0984V27.3656H25.9181ZM28.4099 26.5304C28.4099 21.782 32.2559 17.9327 37.0001 17.9327V16.7514C31.604 16.7514 27.2296 21.1296 27.2296 26.5304H28.4099ZM28.4099 51.4699V26.5304H27.2296V51.4699H28.4099ZM37.0001 60.0675C32.2559 60.0675 28.4099 56.2182 28.4099 51.4699H27.2296C27.2296 56.8707 31.604 61.2489 37.0001 61.2489V60.0675ZM45.5903 51.4699C45.5903 56.2182 41.7443 60.0675 37.0001 60.0675V61.2489C42.3962 61.2489 46.7706 56.8707 46.7706 51.4699H45.5903ZM45.5903 26.5304V51.4699H46.7706V26.5304H45.5903ZM37.0001 17.9327C41.7443 17.9327 45.5903 21.782 45.5903 26.5304H46.7706C46.7706 21.1296 42.3962 16.7514 37.0001 16.7514V17.9327ZM10.7705 19.3766C9.07151 19.3766 7.4107 18.8723 5.99805 17.9275L5.34229 18.9098C6.94905 19.9844 8.83806 20.5579 10.7705 20.5579V19.3766ZM10.1803 18.6743V19.9673H11.3606V18.6743H10.1803ZM6.05999 17.8348C7.4543 18.7672 9.09357 19.2649 10.7705 19.2649V18.0836C9.32701 18.0836 7.91596 17.6552 6.71574 16.8525L6.05999 17.8348ZM2.93722 14.0264C3.57895 15.577 4.66568 16.9024 6.05999 17.8348L6.71574 16.8525C5.51554 16.0499 4.5801 14.9091 4.0277 13.5743L2.93722 14.0264ZM2.45474 9.12341C2.12759 10.7695 2.29549 12.4757 2.93722 14.0264L4.0277 13.5743C3.47531 12.2396 3.33078 10.7708 3.61238 9.35388L2.45474 9.12341ZM4.77517 4.77844C3.5894 5.96523 2.78189 7.47729 2.45474 9.12341L3.61238 9.35388C3.894 7.93691 4.58909 6.63535 5.60979 5.61378L4.77517 4.77844ZM9.11639 2.456C7.47168 2.78343 5.96092 3.59165 4.77517 4.77844L5.60979 5.61378C6.63048 4.59221 7.93091 3.8965 9.34666 3.61465L9.11639 2.456ZM14.0151 2.9389C12.4658 2.29662 10.7611 2.12857 9.11639 2.456L9.34666 3.61465C10.7624 3.3328 12.2299 3.47745 13.5634 4.03032L14.0151 2.9389ZM17.8202 6.06438C16.8886 4.66887 15.5644 3.58119 14.0151 2.9389L13.5634 4.03032C14.897 4.5832 16.0369 5.51946 16.8388 6.7207L17.8202 6.06438ZM19.2491 10.7789C19.2491 9.10058 18.7519 7.4599 17.8202 6.06438L16.8388 6.7207C17.6408 7.92195 18.0688 9.33422 18.0688 10.7789H19.2491ZM19.9509 10.1883H18.659V11.3696H19.9509V10.1883ZM17.9129 6.00238C18.8568 7.41624 19.3607 9.07851 19.3607 10.7789H20.541C20.541 8.84485 19.968 6.9542 18.8943 5.34606L17.9129 6.00238ZM14.0578 2.8358C15.6274 3.48654 16.969 4.58851 17.9129 6.00238L18.8943 5.34606C17.8207 3.73792 16.2948 2.48453 14.5095 1.74438L14.0578 2.8358ZM9.09463 2.34656C10.761 2.01481 12.4881 2.18508 14.0578 2.8358L14.5095 1.74438C12.7242 1.00423 10.7596 0.810585 8.86436 1.18791L9.09463 2.34656ZM4.69633 4.69953C5.89768 3.49713 7.42831 2.67829 9.09463 2.34656L8.86436 1.18791C6.96908 1.56523 5.22814 2.49658 3.86171 3.86419L4.69633 4.69953ZM2.34538 9.10164C2.67684 7.43387 3.49497 5.90192 4.69633 4.69953L3.86171 3.86419C2.49529 5.2318 1.56474 6.97424 1.18774 8.87117L2.34538 9.10164ZM2.83422 14.0691C2.18404 12.4981 2.01394 10.7694 2.34538 9.10164L1.18774 8.87117C0.810745 10.7681 1.00423 12.7343 1.74374 14.5212L2.83422 14.0691ZM5.99805 17.9275C4.58541 16.9828 3.48439 15.6401 2.83422 14.0691L1.74374 14.5212C2.48325 16.308 3.73555 17.8353 5.34229 18.9098L5.99805 17.9275ZM5.99808 60.0725C7.41073 59.1278 9.07155 58.6235 10.7705 58.6235V57.4421C8.8381 57.4421 6.94907 58.0156 5.34233 59.0902L5.99808 60.0725ZM2.83425 63.9309C3.48442 62.3599 4.58544 61.0172 5.99808 60.0725L5.34233 59.0902C3.73558 60.1648 2.48327 61.692 1.74377 63.4788L2.83425 63.9309ZM2.34542 68.8983C2.01397 67.2306 2.18408 65.502 2.83425 63.9309L1.74377 63.4788C1.00426 65.2657 0.810777 67.2319 1.18777 69.1288L2.34542 68.8983ZM4.69636 73.3005C3.49501 72.0981 2.67688 70.5662 2.34542 68.8983L1.18777 69.1288C1.56477 71.0258 2.49532 72.7682 3.86175 74.1359L4.69636 73.3005ZM9.09466 75.6534C7.42833 75.3217 5.89772 74.5029 4.69636 73.3005L3.86175 74.1359C5.22817 75.5035 6.9691 76.4348 8.86439 76.8121L9.09466 75.6534ZM14.0578 75.1642C12.4882 75.8149 10.761 75.9853 9.09466 75.6534L8.86439 76.8121C10.7597 77.1894 12.7242 76.9958 14.5095 76.2557L14.0578 75.1642ZM17.913 71.9976C16.9691 73.4116 15.6274 74.5135 14.0578 75.1642L14.5095 76.2557C16.2948 75.5156 17.8208 74.2621 18.8943 72.654L17.913 71.9976ZM19.3607 67.2211C19.3607 68.9215 18.8569 70.5838 17.913 71.9976L18.8943 72.654C19.968 71.0458 20.541 69.1552 20.541 67.2211H19.3607ZM18.659 67.8117H19.9509V66.6304H18.659V67.8117ZM17.8202 71.9357C18.7519 70.5402 19.2491 68.8994 19.2491 67.2211H18.0688C18.0688 68.6659 17.6408 70.078 16.8388 71.2794L17.8202 71.9357ZM14.0151 75.0611C15.5644 74.4188 16.8886 73.3311 17.8202 71.9357L16.8388 71.2794C16.0369 72.4806 14.897 73.4169 13.5635 73.9698L14.0151 75.0611ZM9.11641 75.544C10.7611 75.8715 12.4659 75.7034 14.0151 75.0611L13.5635 73.9698C12.2299 74.5226 10.7624 74.6672 9.34668 74.3854L9.11641 75.544ZM4.7752 73.2216C5.96096 74.4084 7.47172 75.2166 9.11641 75.544L9.34668 74.3854C7.93095 74.1035 6.63051 73.4078 5.60981 72.3863L4.7752 73.2216ZM2.45478 68.8766C2.78193 70.5227 3.58944 72.0348 4.7752 73.2216L5.60981 72.3863C4.58913 71.3646 3.89403 70.0632 3.61242 68.6461L2.45478 68.8766ZM2.93726 63.9737C2.29553 65.5243 2.12763 67.2305 2.45478 68.8766L3.61242 68.6461C3.33081 67.2292 3.47535 65.7605 4.02774 64.4258L2.93726 63.9737ZM6.06002 60.1652C4.66572 61.0977 3.57899 62.423 2.93726 63.9737L4.02774 64.4258C4.58013 63.091 5.51557 61.9501 6.71578 61.1475L6.06002 60.1652ZM10.7705 58.7351C9.09359 58.7351 7.45433 59.2328 6.06002 60.1652L6.71578 61.1475C7.91598 60.3448 9.32704 59.9164 10.7705 59.9164V58.7351ZM10.1804 58.0328V59.3258H11.3607V58.0328H10.1804ZM63.2295 58.6235C64.9285 58.6235 66.5893 59.1278 68.0019 60.0725L68.6577 59.0902C67.051 58.0156 65.162 57.4421 63.2295 57.4421V58.6235ZM63.8197 59.3258V58.0328H62.6394V59.3258H63.8197ZM67.94 60.1652C66.5457 59.2328 64.9064 58.7351 63.2295 58.7351V59.9164C64.673 59.9164 66.084 60.3448 67.2843 61.1475L67.94 60.1652ZM71.0628 63.9737C70.421 62.423 69.3343 61.0977 67.94 60.1652L67.2843 61.1475C68.4845 61.9501 69.4199 63.091 69.9723 64.4258L71.0628 63.9737ZM71.5453 68.8766C71.8725 67.2305 71.7045 65.5243 71.0628 63.9737L69.9723 64.4258C70.5247 65.7605 70.6693 67.2292 70.3876 68.6461L71.5453 68.8766ZM69.2249 73.2216C70.4106 72.0348 71.2181 70.5227 71.5453 68.8766L70.3876 68.6461C70.106 70.0632 69.4109 71.3646 68.3903 72.3863L69.2249 73.2216ZM64.8836 75.544C66.5283 75.2166 68.0391 74.4084 69.2249 73.2216L68.3903 72.3863C67.3695 73.4078 66.0692 74.1035 64.6534 74.3854L64.8836 75.544ZM59.9849 75.0611C61.5341 75.7034 63.239 75.8715 64.8836 75.544L64.6534 74.3854C63.2377 74.6672 61.7702 74.5226 60.4365 73.9698L59.9849 75.0611ZM56.1798 71.9357C57.1114 73.3311 58.4356 74.4188 59.9849 75.0611L60.4365 73.9698C59.103 73.4169 57.9632 72.4806 57.1612 71.2794L56.1798 71.9357ZM54.7509 67.2211C54.7509 68.8994 55.2482 70.5402 56.1798 71.9357L57.1612 71.2794C56.3592 70.078 55.9312 68.6659 55.9312 67.2211H54.7509ZM54.0492 67.8117H55.3411V66.6304H54.0492V67.8117ZM56.087 71.9976C55.1432 70.5838 54.6394 68.9215 54.6394 67.2211H53.459C53.459 69.1552 54.0321 71.0458 55.1057 72.654L56.087 71.9976ZM59.9422 75.1642C58.3726 74.5135 57.0309 73.4116 56.087 71.9976L55.1057 72.654C56.1792 74.2621 57.7052 75.5156 59.4905 76.2557L59.9422 75.1642ZM64.9054 75.6534C63.2391 75.9853 61.5119 75.8149 59.9422 75.1642L59.4905 76.2557C61.2759 76.9958 63.2404 77.1894 65.1356 76.8121L64.9054 75.6534ZM69.3037 73.3005C68.1024 74.5029 66.5717 75.3217 64.9054 75.6534L65.1356 76.8121C67.0309 76.4348 68.7719 75.5035 70.1383 74.1359L69.3037 73.3005ZM71.6546 68.8983C71.3232 70.5662 70.5051 72.0981 69.3037 73.3005L70.1383 74.1359C71.5047 72.7682 72.4352 71.0258 72.8122 69.1288L71.6546 68.8983ZM71.1658 63.9309C71.8159 65.502 71.986 67.2306 71.6546 68.8983L72.8122 69.1288C73.1892 67.2319 72.9958 65.2657 72.2563 63.4788L71.1658 63.9309ZM68.0019 60.0725C69.4146 61.0172 70.5157 62.3599 71.1658 63.9309L72.2563 63.4788C71.5167 61.692 70.2645 60.1648 68.6577 59.0902L68.0019 60.0725Z" fill="#2C4088"/>
<path d="M62.6394 19.9673H63.2295V20.5579M62.6394 19.9673V20.5579H63.2295M62.6394 19.9673V18.6743M62.6394 19.9673H63.8197V18.6743H62.6394M63.2295 20.5579V19.3766C64.9285 19.3766 66.5893 18.8723 68.0019 17.9275M63.2295 20.5579C65.162 20.5579 67.051 19.9844 68.6577 18.9098M71.711 14.2951L71.1658 14.0691M71.1658 14.0691C70.5157 15.6401 69.4146 16.9828 68.0019 17.9275M71.1658 14.0691L72.2563 14.5211M71.1658 14.0691C71.8159 12.4981 71.986 10.7694 71.6546 9.10164M69.721 4.28186L69.3037 4.69953M69.3037 4.69953C70.5051 5.90192 71.3232 7.43387 71.6546 9.10164M69.3037 4.69953L70.1383 3.86419M69.3037 4.69953C68.1024 3.49713 66.5717 2.67829 64.9054 2.34655M65.0206 1.76723L64.9054 2.34655M64.9054 2.34655L65.1356 1.1879M64.9054 2.34655C63.2391 2.01481 61.5119 2.18507 59.9422 2.8358M59.7164 2.29009L59.4905 1.74438M59.4905 1.74438C61.2759 1.00424 63.2404 0.810582 65.1356 1.1879M59.4905 1.74438L59.9422 2.8358M59.4905 1.74438C57.7052 2.48453 56.1792 3.73792 55.1057 5.34605M55.5964 5.67422L55.1057 5.34605M55.1057 5.34605L56.087 6.00237M55.1057 5.34605C54.0321 6.95419 53.459 8.84485 53.459 10.7789M53.459 10.7789H54.0492V11.3696M53.459 10.7789V11.3696H54.0492M53.459 10.7789H54.6394C54.6394 9.0785 55.1432 7.41625 56.087 6.00237M54.0492 11.3696V10.1883H55.3411V11.3696M54.0492 11.3696H55.3411M55.3411 11.3696V10.7789H55.9312M55.3411 11.3696H55.9312V10.7789M55.9312 10.7789H54.7509C54.7509 9.10058 55.2482 7.45988 56.1798 6.06437M55.9312 10.7789C55.9312 9.33422 56.3592 7.92195 57.1612 6.72069M56.6705 6.39254L56.1798 6.06437M56.1798 6.06437L57.1612 6.72069M56.1798 6.06437C57.1114 4.66885 58.4356 3.58119 59.9849 2.9389M64.7684 3.03532L64.6534 3.61464M64.6534 3.61464C63.2377 3.3328 61.7702 3.47745 60.4365 4.03032M64.6534 3.61464L64.8836 2.456M64.6534 3.61464C66.0692 3.8965 67.3695 4.5922 68.3903 5.61378M68.8075 5.1961L68.3903 5.61378M68.3903 5.61378L69.2249 4.77844M68.3903 5.61378C69.4109 6.63535 70.106 7.93691 70.3876 9.35388M70.5176 13.8004L69.9723 13.5743M69.9723 13.5743C70.5247 12.2396 70.6693 10.7708 70.3876 9.35388M69.9723 13.5743L71.0628 14.0264M69.9723 13.5743C69.4199 14.9091 68.4845 16.0499 67.2843 16.8525M67.6122 17.3437L67.94 17.8348M67.94 17.8348C69.3343 16.9024 70.421 15.577 71.0628 14.0264M67.94 17.8348L67.2843 16.8525M67.94 17.8348C66.5457 18.7672 64.9064 19.2649 63.2295 19.2649V18.0836M63.2295 18.0836V18.6743H62.6394M63.2295 18.0836H62.6394V18.6743M63.2295 18.0836C64.673 18.0836 66.084 17.6552 67.2843 16.8525M26.091 26.9478L25.6737 27.3656M25.6737 27.3656L26.091 27.7833L26.9256 26.9478M25.6737 27.3656L26.5083 26.5302M25.6737 27.3656L9.936 11.6143M27.0984 27.3656H26.5083L26.9256 26.9478M27.0984 27.3656V27.1209L26.9256 26.9478M27.0984 27.3656V50.6343M27.0984 27.3656H25.9181V50.6343H27.0984M26.9256 26.9478L26.5083 26.5302M10.3533 11.1966L9.936 11.6143M9.936 11.6143L10.7706 10.7789M9.936 11.6143C9.47506 11.1529 9.47506 10.4049 9.93602 9.94357M10.3533 10.3612L10.7706 10.7789M10.7706 10.7789L26.5083 26.5302M10.7706 10.7789L9.93602 9.94357M10.7706 10.7789L11.6052 9.94357M10.7706 10.7789L26.1214 26.143M11.1879 10.3612L11.6052 9.94357M11.6052 9.94357C11.1443 9.48223 10.397 9.48223 9.93602 9.94357M11.6052 9.94357L26.956 25.3077L26.1214 26.143M26.1214 26.143L26.5387 25.7253L27.1271 25.7699M26.1214 26.143L27.03 27.0524L27.1271 25.7699M27.1271 25.7699L25.9502 25.6806C26.3841 19.9517 31.1652 15.4387 37.0001 15.4387M27.1271 25.7699C27.5147 20.6522 31.7873 16.62 37.0001 16.62M46.873 25.7698L47.4615 25.7251L47.8788 26.1429M46.873 25.7698L46.9702 27.0523L47.8788 26.1429M46.873 25.7698C46.4854 20.6522 42.2129 16.62 37.0001 16.62M46.873 25.7698L48.0499 25.6805C47.6161 19.9515 42.8349 15.4387 37.0001 15.4387M47.8788 26.1429L47.0442 25.3075L62.3949 9.94357M47.8788 26.1429L63.2295 10.7789M62.8122 10.3612L63.2295 10.7789M63.2295 10.7789L63.6468 10.3612M63.2295 10.7789L63.6468 11.1966M63.2295 10.7789L62.3949 9.94357M63.2295 10.7789L64.0641 9.94357M63.2295 10.7789L64.0641 11.6143M63.2295 10.7789L47.4918 26.5302M47.9091 26.9478L47.4918 26.5302M47.4918 26.5302L48.3264 27.3656M47.4918 26.5302L47.0746 26.9478M47.0746 26.9478L47.4919 27.3654H46.9017M47.0746 26.9478L46.9017 27.1208V27.3654M47.0746 26.9478L47.9092 27.7832L48.3264 27.3656M46.9017 27.3654H48.082V50.6345H46.9017M46.9017 27.3654V50.6345M46.9017 50.6345H47.4919L47.0746 51.0522M46.9017 50.6345V50.8791L47.0746 51.0522M47.0746 51.0522L47.9092 50.2169L48.3264 50.6343M47.0746 51.0522L47.4918 51.4697M47.9091 51.0521L48.3264 50.6343M48.3264 50.6343L47.4918 51.4697M48.3264 50.6343L64.0641 66.3857M63.6468 66.8033L63.2295 67.2211M63.2295 67.2211L63.6468 67.6387M63.2295 67.2211L62.8122 67.6387M63.2295 67.2211L47.4918 51.4697M63.2295 67.2211L64.0641 66.3857M63.2295 67.2211L64.0641 68.0564M63.2295 67.2211L62.3949 68.0564M63.2295 67.2211L47.8788 51.8572M47.8788 51.8572L47.4615 52.2748L46.873 52.2301M47.8788 51.8572L46.9702 50.9476L46.873 52.2301M47.8788 51.8572L47.0442 52.6925L62.3949 68.0564M46.873 52.2301L48.0501 52.3194C47.6162 58.0485 42.8349 62.5614 37.0001 62.5614M46.873 52.2301C46.4854 57.3478 42.213 61.38 37.0001 61.38M27.1271 52.23L26.5387 52.2747L26.1214 51.857M27.1271 52.23L27.03 50.9475L26.1214 51.857M27.1271 52.23C27.5147 57.3478 31.7872 61.38 37.0001 61.38M27.1271 52.23L25.9502 52.3193C26.384 58.0485 31.1652 62.5614 37.0001 62.5614M26.1214 51.857L26.956 52.6924L11.6052 68.0564M26.1214 51.857L10.7706 67.2211M11.1879 67.6387L10.7706 67.2211M10.7706 67.2211L10.3533 67.6387M10.7706 67.2211L10.3533 66.8033M10.7706 67.2211L11.6052 68.0564M10.7706 67.2211L9.936 68.0564M10.7706 67.2211L9.93602 66.3857M10.7706 67.2211L26.5083 51.4697M26.091 51.0521L25.6737 50.6343M25.6737 50.6343L9.93602 66.3857M25.6737 50.6343L26.5083 51.4697M25.6737 50.6343L26.091 50.2167L26.9256 51.0521M26.9256 51.0521L26.5083 50.6343H27.0984M26.9256 51.0521L27.0984 50.879V50.6343M26.9256 51.0521L26.5083 51.4697M10.7705 20.5579V19.9673H11.3606M10.7705 20.5579H11.3606V19.9673M10.7705 20.5579C8.83806 20.5579 6.94905 19.9844 5.34229 18.9098M10.7705 20.5579V19.3766C9.07151 19.3766 7.4107 18.8723 5.99805 17.9275M11.3606 19.9673H10.1803V18.6743H11.3606M11.3606 19.9673V18.6743M5.67017 18.4187L5.99805 17.9275M5.99805 17.9275L5.34229 18.9098M5.99805 17.9275C4.58541 16.9828 3.48439 15.6401 2.83422 14.0691M11.3606 18.6743H10.7705V18.0836M11.3606 18.6743V18.0836H10.7705M10.7705 18.0836V19.2649C9.09357 19.2649 7.4543 18.7672 6.05999 17.8348M10.7705 18.0836C9.32701 18.0836 7.91596 17.6552 6.71574 16.8525M6.38787 17.3437L6.71574 16.8525M6.71574 16.8525L6.05999 17.8348M6.71574 16.8525C5.51554 16.0499 4.5801 14.9091 4.0277 13.5743M3.48246 13.8004L2.93722 14.0264M2.93722 14.0264C3.57895 15.577 4.66568 16.9024 6.05999 17.8348M2.93722 14.0264L4.0277 13.5743M2.93722 14.0264C2.29549 12.4757 2.12759 10.7695 2.45474 9.12341M3.03356 9.23864L2.45474 9.12341M2.45474 9.12341L3.61238 9.35388M2.45474 9.12341C2.78189 7.47729 3.5894 5.96523 4.77517 4.77844M9.23151 3.03532L9.11639 2.456M9.11639 2.456C7.47168 2.78343 5.96092 3.59165 4.77517 4.77844M9.11639 2.456L9.34666 3.61465M9.11639 2.456C10.7611 2.12857 12.4658 2.29662 14.0151 2.9389M13.7893 3.48461L13.5634 4.03032M13.5634 4.03032C12.2299 3.47745 10.7624 3.3328 9.34666 3.61465M13.5634 4.03032L14.0151 2.9389M13.5634 4.03032C14.897 4.5832 16.0369 5.51946 16.8388 6.7207M17.3296 6.39254L16.8388 6.7207M16.8388 6.7207L17.8202 6.06438M16.8388 6.7207C17.6408 7.92195 18.0688 9.33422 18.0688 10.7789M18.0688 10.7789H18.659V11.3696M18.0688 10.7789V11.3696H18.659M18.0688 10.7789H19.2491C19.2491 9.10058 18.7519 7.4599 17.8202 6.06438M18.659 11.3696V10.1883H19.9509V11.3696M18.659 11.3696H19.9509M19.9509 11.3696V10.7789H20.541M19.9509 11.3696H20.541V10.7789M20.541 10.7789H19.3607C19.3607 9.07851 18.8568 7.41624 17.9129 6.00238M20.541 10.7789C20.541 8.84485 19.968 6.9542 18.8943 5.34606M18.4037 5.67422L17.9129 6.00238M17.9129 6.00238L18.8943 5.34606M17.9129 6.00238C16.969 4.58851 15.6274 3.48654 14.0578 2.8358M14.2836 2.29009L14.0578 2.8358M14.0578 2.8358L14.5095 1.74438M14.0578 2.8358C12.4881 2.18508 10.761 2.01481 9.09463 2.34656M8.97949 1.76723L9.09463 2.34656M9.09463 2.34656L8.86436 1.18791M9.09463 2.34656C7.42831 2.67829 5.89768 3.49713 4.69633 4.69953M4.27902 4.28187L4.69633 4.69953M4.69633 4.69953L3.86171 3.86419M4.69633 4.69953C3.49497 5.90192 2.67684 7.43387 2.34538 9.10164M1.76656 8.98641L2.34538 9.10164M2.34538 9.10164L1.18774 8.87117M2.34538 9.10164C2.01394 10.7694 2.18404 12.4981 2.83422 14.0691M2.28898 14.2951L2.83422 14.0691M2.83422 14.0691L1.74374 14.5212M5.67021 59.5813L5.99808 60.0725M5.99808 60.0725C7.41073 59.1278 9.07155 58.6235 10.7705 58.6235V57.4421M5.99808 60.0725L5.34233 59.0902M5.99808 60.0725C4.58544 61.0172 3.48442 62.3599 2.83425 63.9309M11.3607 58.0328H10.7705V57.4421M11.3607 58.0328V57.4421H10.7705M11.3607 58.0328V59.3258M11.3607 58.0328H10.1804V59.3258H11.3607M10.7705 57.4421C8.8381 57.4421 6.94907 58.0156 5.34233 59.0902M2.28901 63.7049L1.74377 63.4788M1.74377 63.4788C2.48327 61.692 3.73558 60.1648 5.34233 59.0902M1.74377 63.4788L2.83425 63.9309M1.74377 63.4788C1.00426 65.2657 0.810777 67.2319 1.18777 69.1288M1.7666 69.0136L2.34542 68.8983M2.34542 68.8983C2.01397 67.2306 2.18408 65.502 2.83425 63.9309M2.34542 68.8983L1.18777 69.1288M2.34542 68.8983C2.67688 70.5662 3.49501 72.0981 4.69636 73.3005M8.97953 76.2327L8.86439 76.8121M8.86439 76.8121C6.9691 76.4348 5.22817 75.5035 3.86175 74.1359M8.86439 76.8121L9.09466 75.6534M8.86439 76.8121C10.7597 77.1894 12.7242 76.9958 14.5095 76.2557M14.2836 75.7099L14.0578 75.1642M14.0578 75.1642C12.4882 75.8149 10.761 75.9853 9.09466 75.6534M14.0578 75.1642L14.5095 76.2557M14.0578 75.1642C15.6274 74.5135 16.9691 73.4116 17.913 71.9976M20.541 67.2211H19.9509V66.6304M20.541 67.2211V66.6304H19.9509M20.541 67.2211C20.541 69.1552 19.968 71.0458 18.8943 72.654M20.541 67.2211H19.3607C19.3607 68.9215 18.8569 70.5838 17.913 71.9976M19.9509 66.6304V67.8117H18.659V66.6304M19.9509 66.6304H18.659M18.659 66.6304V67.2211H18.0688M18.659 66.6304H18.0688V67.2211M18.0688 67.2211H19.2491C19.2491 68.8994 18.7519 70.5402 17.8202 71.9357M18.0688 67.2211C18.0688 68.6659 17.6408 70.078 16.8388 71.2794M17.3296 71.6075L17.8202 71.9357M17.8202 71.9357L16.8388 71.2794M17.8202 71.9357C16.8886 73.3311 15.5644 74.4188 14.0151 75.0611M13.7893 74.5154L13.5635 73.9698M13.5635 73.9698C14.897 73.4169 16.0369 72.4806 16.8388 71.2794M13.5635 73.9698L14.0151 75.0611M13.5635 73.9698C12.2299 74.5226 10.7624 74.6672 9.34668 74.3854M5.19251 72.8039L5.60981 72.3863M5.60981 72.3863C6.63051 73.4078 7.93095 74.1035 9.34668 74.3854M5.60981 72.3863L4.7752 73.2216M5.60981 72.3863C4.58913 71.3646 3.89403 70.0632 3.61242 68.6461M3.0336 68.7614L2.45478 68.8766M2.45478 68.8766C2.78193 70.5227 3.58944 72.0348 4.7752 73.2216M2.45478 68.8766L3.61242 68.6461M2.45478 68.8766C2.12763 67.2305 2.29553 65.5243 2.93726 63.9737M6.38791 60.6563L6.06002 60.1652M6.06002 60.1652C4.66572 61.0977 3.57899 62.423 2.93726 63.9737M6.06002 60.1652L6.71578 61.1475M6.06002 60.1652C7.45433 59.2328 9.09359 58.7351 10.7705 58.7351V59.9164M10.7705 59.9164V59.3258H11.3607M10.7705 59.9164H11.3607V59.3258M10.7705 59.9164C9.32704 59.9164 7.91598 60.3448 6.71578 61.1475M63.2295 57.4421V58.0328H62.6394M63.2295 57.4421H62.6394V58.0328M63.2295 57.4421C65.162 57.4421 67.051 58.0156 68.6577 59.0902M63.2295 57.4421V58.6235C64.9285 58.6235 66.5893 59.1278 68.0019 60.0725M62.6394 58.0328H63.8197V59.3258H62.6394M62.6394 58.0328V59.3258M68.3298 59.5813L68.0019 60.0725M68.0019 60.0725L68.6577 59.0902M68.0019 60.0725C69.4146 61.0172 70.5157 62.3599 71.1658 63.9309M62.6394 59.3258H63.2295V59.9164M62.6394 59.3258V59.9164H63.2295M63.2295 59.9164V58.7351C64.9064 58.7351 66.5457 59.2328 67.94 60.1652M63.2295 59.9164C64.673 59.9164 66.084 60.3448 67.2843 61.1475M67.6122 60.6563L67.94 60.1652M67.94 60.1652L67.2843 61.1475M67.94 60.1652C69.3343 61.0977 70.421 62.423 71.0628 63.9737M70.5176 64.1997L69.9723 64.4258M69.9723 64.4258C69.4199 63.091 68.4845 61.9501 67.2843 61.1475M69.9723 64.4258L71.0628 63.9737M69.9723 64.4258C70.5247 65.7605 70.6693 67.2292 70.3876 68.6461M68.8075 72.8039L68.3903 72.3863M68.3903 72.3863C69.4109 71.3646 70.106 70.0632 70.3876 68.6461M68.3903 72.3863L69.2249 73.2216M68.3903 72.3863C67.3695 73.4078 66.0692 74.1035 64.6534 74.3854M60.2107 74.5154L60.4365 73.9698M60.4365 73.9698C61.7702 74.5226 63.2377 74.6672 64.6534 74.3854M60.4365 73.9698L59.9849 75.0611M60.4365 73.9698C59.103 73.4169 57.9631 72.4806 57.1612 71.2794M56.6705 71.6075L56.1798 71.9357M56.1798 71.9357C57.1114 73.3311 58.4356 74.4188 59.9849 75.0611M56.1798 71.9357L57.1612 71.2794M56.1798 71.9357C55.2482 70.5402 54.7509 68.8994 54.7509 67.2211H55.9312M55.9312 67.2211H55.3411V66.6304M55.9312 67.2211V66.6304H55.3411M55.9312 67.2211C55.9312 68.6659 56.3592 70.078 57.1612 71.2794M55.3411 66.6304V67.8117H54.0492V66.6304M55.3411 66.6304H54.0492M54.0492 66.6304V67.2211H53.459M54.0492 66.6304H53.459V67.2211M53.459 67.2211H54.6394C54.6394 68.9215 55.1432 70.5838 56.087 71.9976M53.459 67.2211C53.459 69.1552 54.0321 71.0458 55.1057 72.654M55.5964 72.3258L55.1057 72.654M55.1057 72.654L56.087 71.9976M55.1057 72.654C56.1792 74.2621 57.7052 75.5156 59.4905 76.2557M65.0206 76.2327L64.9054 75.6534M64.9054 75.6534C63.2391 75.9853 61.5119 75.8149 59.9422 75.1642M64.9054 75.6534L65.1356 76.8121M64.9054 75.6534C66.5717 75.3217 68.1024 74.5029 69.3037 73.3005M72.2334 69.0136L71.6546 68.8983M71.6546 68.8983C71.3232 70.5662 70.5051 72.0981 69.3037 73.3005M71.6546 68.8983L72.8122 69.1288M71.6546 68.8983C71.986 67.2306 71.8159 65.502 71.1658 63.9309M68.0019 17.9275L68.6577 18.9098M68.6577 18.9098C70.2645 17.8353 71.5167 16.308 72.2563 14.5211M72.2563 14.5211C72.9958 12.7343 73.1892 10.7681 72.8122 8.87117M71.6546 9.10164L72.8122 8.87117M72.8122 8.87117C72.4353 6.97424 71.5047 5.2318 70.1383 3.86419M70.1383 3.86419C68.7719 2.49658 67.0309 1.56523 65.1356 1.1879M59.9422 2.8358C58.3726 3.48654 57.0309 4.58851 56.087 6.00237M57.1612 6.72069C57.9631 5.51945 59.103 4.5832 60.4365 4.03032M59.9849 2.9389L60.4365 4.03032M59.9849 2.9389C61.5341 2.29661 63.239 2.12857 64.8836 2.456M64.8836 2.456C66.5283 2.78343 68.0391 3.59164 69.2249 4.77844M69.2249 4.77844C70.4106 5.96522 71.2181 7.47729 71.5453 9.12341M71.5453 9.12341L70.3876 9.35388M71.5453 9.12341C71.8725 10.7695 71.7045 12.4757 71.0628 14.0264M37.0001 15.4387V16.62M62.3949 9.94357C62.8558 9.48223 63.6031 9.48223 64.0641 9.94357M64.0641 9.94357C64.5251 10.4049 64.5251 11.1529 64.0641 11.6143M64.0641 11.6143L48.3264 27.3656M64.0641 66.3857C64.5251 66.8471 64.5251 67.5951 64.0641 68.0564M64.0641 68.0564C63.6031 68.5177 62.8558 68.5177 62.3949 68.0564M37.0001 62.5614V61.38M11.6052 68.0564C11.1443 68.5177 10.397 68.5177 9.936 68.0564M9.936 68.0564C9.47505 67.5951 9.47506 66.8471 9.93602 66.3857M28.4099 26.5304C28.4099 21.782 32.2559 17.9327 37.0001 17.9327M28.4099 26.5304H27.2296M28.4099 26.5304V51.4699M37.0001 17.9327V16.7514M37.0001 17.9327C41.7443 17.9327 45.5903 21.782 45.5903 26.5304M37.0001 16.7514C31.604 16.7514 27.2296 21.1296 27.2296 26.5304M37.0001 16.7514C42.3962 16.7514 46.7706 21.1296 46.7706 26.5304M27.2296 26.5304V51.4699M28.4099 51.4699H27.2296M28.4099 51.4699C28.4099 56.2182 32.2559 60.0675 37.0001 60.0675M27.2296 51.4699C27.2296 56.8707 31.604 61.2489 37.0001 61.2489M37.0001 60.0675V61.2489M37.0001 60.0675C41.7443 60.0675 45.5903 56.2182 45.5903 51.4699M37.0001 61.2489C42.3962 61.2489 46.7706 56.8707 46.7706 51.4699M45.5903 51.4699H46.7706M45.5903 51.4699V26.5304M46.7706 51.4699V26.5304M45.5903 26.5304H46.7706M5.34229 18.9098C3.73555 17.8353 2.48325 16.308 1.74374 14.5212M4.0277 13.5743C3.47531 12.2396 3.33078 10.7708 3.61238 9.35388M3.61238 9.35388C3.894 7.93691 4.58909 6.63535 5.60979 5.61378M4.77517 4.77844L5.60979 5.61378M5.60979 5.61378C6.63048 4.59221 7.93091 3.8965 9.34666 3.61465M14.0151 2.9389C15.5644 3.58119 16.8886 4.66887 17.8202 6.06438M18.8943 5.34606C17.8207 3.73792 16.2948 2.48453 14.5095 1.74438M14.5095 1.74438C12.7242 1.00423 10.7596 0.810585 8.86436 1.18791M8.86436 1.18791C6.96908 1.56523 5.22814 2.49658 3.86171 3.86419M3.86171 3.86419C2.49529 5.2318 1.56474 6.97424 1.18774 8.87117M1.18774 8.87117C0.810745 10.7681 1.00423 12.7343 1.74374 14.5212M1.18777 69.1288C1.56477 71.0258 2.49532 72.7682 3.86175 74.1359M4.69636 73.3005L3.86175 74.1359M4.69636 73.3005C5.89772 74.5029 7.42833 75.3217 9.09466 75.6534M14.5095 76.2557C16.2948 75.5156 17.8208 74.2621 18.8943 72.654M17.913 71.9976L18.8943 72.654M14.0151 75.0611C12.4659 75.7034 10.7611 75.8715 9.11641 75.544M9.11641 75.544L9.34668 74.3854M9.11641 75.544C7.47172 75.2166 5.96096 74.4084 4.7752 73.2216M3.61242 68.6461C3.33081 67.2292 3.47535 65.7605 4.02774 64.4258M2.93726 63.9737L4.02774 64.4258M4.02774 64.4258C4.58013 63.091 5.51558 61.9501 6.71578 61.1475M68.6577 59.0902C70.2645 60.1648 71.5167 61.692 72.2563 63.4788M71.0628 63.9737C71.7045 65.5243 71.8725 67.2305 71.5453 68.8766M71.5453 68.8766L70.3876 68.6461M71.5453 68.8766C71.2181 70.5227 70.4106 72.0348 69.2249 73.2216M69.2249 73.2216C68.0391 74.4084 66.5283 75.2166 64.8836 75.544M64.8836 75.544L64.6534 74.3854M64.8836 75.544C63.239 75.8715 61.5341 75.7034 59.9849 75.0611M56.087 71.9976C57.0309 73.4116 58.3726 74.5135 59.9422 75.1642M59.9422 75.1642L59.4905 76.2557M59.4905 76.2557C61.2759 76.9958 63.2404 77.1894 65.1356 76.8121M65.1356 76.8121C67.0309 76.4348 68.7719 75.5035 70.1383 74.1359M69.3037 73.3005L70.1383 74.1359M70.1383 74.1359C71.5047 72.7682 72.4353 71.0258 72.8122 69.1288M72.8122 69.1288C73.1892 67.2319 72.9958 65.2657 72.2563 63.4788M71.1658 63.9309L72.2563 63.4788" stroke="#2C4088"/>
</svg>
